<svg xmlns="http://www.w3.org/2000/svg" viewBox="0 0 400 120" width="400" height="120">
  <defs>
    <linearGradient id="goldGrad" x1="0%" y1="0%" x2="100%" y2="100%">
      <stop offset="0%" style="stop-color:#c7923e;stop-opacity:1" />
      <stop offset="50%" style="stop-color:#e8b84b;stop-opacity:1" />
      <stop offset="100%" style="stop-color:#c7923e;stop-opacity:1" />
    </linearGradient>
    <linearGradient id="gemShine" x1="0%" y1="0%" x2="100%" y2="100%">
      <stop offset="0%" style="stop-color:#e8b84b;stop-opacity:1" />
      <stop offset="40%" style="stop-color:#f5d878;stop-opacity:1" />
      <stop offset="100%" style="stop-color:#c7923e;stop-opacity:1" />
    </linearGradient>
    <filter id="shadow1" x="-10%" y="-10%" width="130%" height="140%">
      <feDropShadow dx="0" dy="2" stdDeviation="3" flood-color="#c7923e" flood-opacity="0.3"/>
    </filter>
  </defs>
  <g transform="translate(15, 60)">
    <polygon points="55,0 110,55 55,110 0,55" fill="url(#gemShine)" stroke="#c7923e" stroke-width="2"/>
    <polygon points="55,18 92,55 55,92 18,55" fill="none" stroke="rgba(255,255,255,0.35)" stroke-width="1.5"/>
    <polygon points="55,0 110,55 55,55" fill="rgba(255,255,255,0.15)"/>
    <polygon points="55,0 0,55 55,55" fill="rgba(255,255,255,0.08)"/>
    <line x1="40" y1="40" x2="70" y2="40" stroke="rgba(255,255,255,0.5)" stroke-width="2" stroke-linecap="round"/>
    <line x1="55" y1="25" x2="55" y2="55" stroke="rgba(255,255,255,0.5)" stroke-width="2" stroke-linecap="round"/>
    <circle cx="35" cy="50" r="2" fill="rgba(255,255,255,0.6)"/>
    <circle cx="75" cy="45" r="1.5" fill="rgba(255,255,255,0.4)"/>
    <circle cx="60" cy="70" r="1.5" fill="rgba(255,255,255,0.3)"/>
  </g>
  <text x="155" y="55" font-family="'Playfair Display', Georgia, 'Times New Roman', serif" font-size="42" font-weight="700" fill="#131921" filter="url(#shadow1)">HOPE</text>
  <text x="155" y="85" font-family="'Inter', 'Segoe UI', Arial, sans-serif" font-size="20" font-weight="300" fill="#565959" letter-spacing="6">COLLECTION</text>
  <line x1="155" y1="96" x2="370" y2="96" stroke="url(#goldGrad)" stroke-width="1.5" stroke-linecap="round" opacity="0.7"/>
</svg>